PathFileType	4	(X/Y/Z)	C:\Users\Basilio\Documents\Thesis Gigler\squatting_fais\c3dfiles\047\SJ_pre1\markers_experimental.trc
DataRate	CameraRate	NumFrames	NumMarkers	Units	OrigDataRate	OrigDataStartFrame	OrigNumFrames
200.000000	200.000000	4	61	mm	200.000000	413	1653
Frame#	Time	FHD			LBHD			RBHD			C7			T10			CLAV			LSHO			LUUPA			LMUPA			LDUPA			LLEP			LMEP			LRAD			LUL			LRFIN			RSHO			RUPA1			RMUPA			RDUPA			RLEP			RMEP			RRAD			RUL			RUFIN			LASI			RASI			USACR			LSACR			RSACR			LTHI1			LTHI2			LTHI3			LTHI4			LLFC			LMFC			LTIB1			LTIB2			LTIB3			LTIB4			LLMAL			LMMAL			LMT1			LMT2			LMT5			RTHI			RTHI2			RTHI3			RTHI4			RLFC			RMFC			RTIB1			RTIB2			RTIB3			RTIB4			RLMAL			RMMAL			RHEE			RMT1			RMT2			RMT5			*60			
		X1	Y1	Z1	X2	Y2	Z2	X3	Y3	Z3	X4	Y4	Z4	X5	Y5	Z5	X6	Y6	Z6	X7	Y7	Z7	X8	Y8	Z8	X9	Y9	Z9	X10	Y10	Z10	X11	Y11	Z11	X12	Y12	Z12	X13	Y13	Z13	X14	Y14	Z14	X15	Y15	Z15	X16	Y16	Z16	X17	Y17	Z17	X18	Y18	Z18	X19	Y19	Z19	X20	Y20	Z20	X21	Y21	Z21	X22	Y22	Z22	X23	Y23	Z23	X24	Y24	Z24	X25	Y25	Z25	X26	Y26	Z26	X27	Y27	Z27	X28	Y28	Z28	X29	Y29	Z29	X30	Y30	Z30	X31	Y31	Z31	X32	Y32	Z32	X33	Y33	Z33	X34	Y34	Z34	X35	Y35	Z35	X36	Y36	Z36	X37	Y37	Z37	X38	Y38	Z38	X39	Y39	Z39	X40	Y40	Z40	X41	Y41	Z41	X42	Y42	Z42	X43	Y43	Z43	X44	Y44	Z44	X45	Y45	Z45	X46	Y46	Z46	X47	Y47	Z47	X48	Y48	Z48	X49	Y49	Z49	X50	Y50	Z50	X51	Y51	Z51	X52	Y52	Z52	X53	Y53	Z53	X54	Y54	Z54	X55	Y55	Z55	X56	Y56	Z56	X57	Y57	Z57	X58	Y58	Z58	X59	Y59	Z59	X60	Y60	Z60	X61	Y61	Z61	

414	2.065	-105.398307800293	1641.816650390625	-833.1500244140627	-232.3026123046876	1659.589599609375	-962.491638183594	-300.7079467773438	1669.250854492188	-829.8657836914065	-361.4109191894532	1496.799194335938	-894.1704711914065	-426.4781494140626	1175.090454101563	-884.9885253906252	-230.3387451171876	1403.842651367188	-887.657653808594	-280.2817077636719	1442.677978515625	-1067.189331054688	-398.4232788085939	1340.590698242188	-1191.456298828125	-361.9100036621094	1310.943115234375	-1212.204345703125	-413.3172607421876	1287.793579101563	-1234.941772460938	-408.0964660644532	1222.73876953125	-1270.048950195313	-467.9947204589845	1197.042846679688	-1196.492919921875	-312.2766113281251	1068.829467773438	-1093.053100585938	-276.4406127929688	1031.902465820313	-1152.08544921875	-253.5824890136719	1054.997680664063	-1055.25537109375	-298.6278686523438	1455.261352539063	-723.7075195312501	-422.0830688476564	1345.587036132813	-592.7098388671876	-388.8030395507814	1314.05126953125	-573.1236572265626	-439.033172607422	1291.421264648438	-551.1148071289064	-432.523895263672	1222.589111328125	-518.9960937500001	-490.7191467285157	1194.87548828125	-585.2526245117189	-314.4624633789063	1068.062377929688	-686.0840454101564	-291.3115539550782	1032.509887695313	-624.4996337890626	-253.4749450683594	1050.417358398438	-712.0802612304689	-238.9109191894532	948.3054199218752	-1004.158874511719	-238.4757690429688	951.107116699219	-770.5587158203127	-422.1378173828126	1031.960571289063	-891.287048339844	-427.7315979003907	1001.278259277344	-919.9272460937502	-423.7835693359376	1000.867736816406	-862.0301513671877	-345.2887878417969	811.1072387695315	-1085.214111328125	-317.4464721679688	733.4686889648439	-1102.066650390625	-267.6083984375001	732.2384033203126	-1093.9306640625	-348.9042663574219	680.9258422851564	-1104.08203125	-383.8765869140626	507.5931396484376	-1094.257080078125	-329.7252502441407	473.0014038085939	-988.4370727539065	-339.6509094238282	311.2577819824219	-1055.019653320313	-372.2815246582032	281.1551208496094	-1131.331420898438	-341.3945617675782	271.4148864746094	-1097.434692382813	-348.0374450683594	189.0773162841797	-1082.630493164063	-409.2744445800782	97.09296417236331	-1136.555419921875	-366.1673583984376	100.0636367797852	-1056.598876953125	-245.416244506836	63.40023803710939	-1116.69775390625	-256.7503967285157	64.06784820556642	-1159.944458007813	-306.2944335937501	43.90464019775391	-1196.007446289063	-361.4965209960938	785.5557250976565	-688.3004150390626	-331.1888732910157	727.8761596679689	-672.9336547851564	-298.0990905761719	726.4966430664064	-675.5068359375001	-364.6459350585938	650.4798583984376	-680.5441284179689	-375.3363342285157	499.2038879394532	-688.5992431640626	-326.0256042480469	479.2433471679689	-801.9517211914065	-342.4145202636719	372.9219665527344	-689.0277709960939	-409.7967224121095	292.8521423339844	-659.9132080078126	-363.0191650390626	292.9585571289063	-663.8533325195314	-345.3196716308594	242.6518554687501	-690.7088012695314	-406.5183410644532	90.27957153320314	-666.6641845703126	-360.7510681152344	103.9883117675782	-747.5240478515626	-447.079071044922	50.51395416259767	-727.4146118164064	-235.9801177978516	55.41909027099611	-696.4462890625001	-245.3343658447266	59.08185195922853	-651.0532836914064	-301.9047241210938	31.03137397766114	-604.7266845703126	nan	nan	nan	
415	2.07	-105.2425231933594	1641.669311523438	-833.1418457031252	-232.2184448242188	1659.663818359375	-962.3695068359377	-300.5903015136719	1669.293334960938	-829.6821899414065	-361.3329772949219	1496.8037109375	-894.0936279296877	-426.5007324218751	1175.085327148438	-884.9859008789065	-230.2319030761719	1403.796875	-887.5793457031252	-280.1456298828126	1442.7041015625	-1067.16259765625	-398.3053283691407	1340.602661132813	-1191.387939453125	-361.8478698730469	1310.9306640625	-1212.15625	-413.2378540039064	1287.829956054688	-1234.911987304688	-408.0496826171876	1222.766845703125	-1270.0341796875	-467.9385070800782	1197.114868164063	-1196.440307617188	-312.2992553710938	1068.85302734375	-1093.0302734375	-276.3013000488282	1031.9462890625	-1152.06787109375	-253.5225830078126	1054.996337890625	-1055.293212890625	-298.5718994140626	1455.255249023438	-723.6770629882814	-422.0773010253907	1345.58544921875	-592.6212768554689	-388.8078002929689	1314.053955078125	-573.1206054687501	-439.0375366210939	1291.397094726563	-551.0815429687501	-432.5226135253907	1222.600219726563	-518.9769287109376	-490.732391357422	1194.85302734375	-585.3215332031251	-314.5500488281251	1068.053955078125	-686.0980834960939	-291.3885498046876	1032.474731445313	-624.4481811523439	-253.4460449218751	1050.453491210938	-712.2700195312501	-239.0174255371094	948.3107910156252	-1004.055419921875	-238.531967163086	951.0666503906252	-770.444763183594	-422.1329040527345	1031.96630859375	-891.290222167969	-427.7363586425782	1001.288208007813	-919.9240722656252	-423.804168701172	1000.866760253906	-862.0586547851565	-345.2860717773438	811.0374755859377	-1085.157958984375	-317.4496154785157	733.5075073242189	-1102.11376953125	-267.6568603515626	732.2055053710939	-1093.854248046875	-348.9269714355469	680.9064941406251	-1104.026977539063	-383.8755798339844	507.593963623047	-1094.249389648438	-329.5550842285157	472.6477966308595	-987.974060058594	-339.7511901855469	311.1984558105469	-1054.912109375	-372.3233337402344	281.1843261718751	-1131.316040039063	-341.2732849121094	271.6647949218751	-1097.490356445313	-348.0760498046876	189.1278839111328	-1082.637939453125	-409.2781372070314	97.1110534667969	-1136.52978515625	-366.0645446777344	100.1484680175782	-1056.57421875	-245.4132080078126	63.40601348876955	-1116.655517578125	-256.8014831542969	64.01954650878908	-1159.905395507813	-306.3544921875001	43.91149902343751	-1195.993774414063	-361.5572509765626	785.5357055664065	-688.2951660156251	-331.1976318359376	727.8200073242189	-672.8732910156251	-298.1453552246094	726.4917602539064	-675.4936523437501	-364.6723632812501	650.4801025390626	-680.5009765625001	-375.3767089843751	499.2215881347657	-688.5355834960939	-326.1144409179688	479.1550598144532	-801.837341308594	-342.4414062500001	372.9160461425782	-688.9854736328126	-409.7784729003907	292.8240051269532	-659.9176635742189	-363.0420532226563	292.9195861816407	-663.8094482421876	-345.2846374511719	242.6808013916016	-690.6289672851564	-406.5538940429689	90.25858306884767	-666.6500854492189	-360.6364440917969	104.0513687133789	-747.5999145507814	-447.0988769531251	50.47188568115236	-727.4032592773439	-236.0003662109376	55.39579010009767	-696.4491577148439	-245.3273162841797	59.07247161865236	-651.0523681640626	-301.8941040039063	31.05265617370606	-604.7185668945314	nan	nan	nan	
416	2.075	-105.2286529541016	1641.619262695313	-833.0615844726565	-232.1649475097657	1659.66943359375	-962.2607421875002	-300.4423522949219	1669.283203125	-829.500915527344	-361.2275085449219	1496.851196289063	-894.0935058593752	-426.5151977539064	1175.0791015625	-884.9915771484377	-230.1355133056641	1403.78759765625	-887.520690917969	-280.0573425292969	1442.784790039063	-1067.120971679688	-397.8291931152345	1340.212280273438	-1191.51171875	-361.8176269531251	1310.978637695313	-1212.042602539063	-413.1795654296876	1287.84033203125	-1234.882202148438	-407.9580383300782	1222.861206054688	-1269.985229492188	-467.8953247070314	1197.204711914063	-1196.458862304688	-312.3415222167969	1068.84326171875	-1092.979736328125	-276.2339782714844	1031.929565429688	-1152.0947265625	-253.5016326904297	1055.02197265625	-1055.269897460938	-298.5263366699219	1455.102661132813	-723.8104248046876	-422.0612792968751	1345.58349609375	-592.6520385742189	-388.8155517578126	1314.047729492188	-573.1203613281251	-438.9753723144532	1291.39697265625	-551.0907592773439	-432.5071411132814	1222.608642578125	-518.9932250976564	-490.7239379882814	1194.873413085938	-585.3375854492189	-314.4659729003907	1068.0732421875	-686.0595092773439	-291.4361877441407	1032.472900390625	-624.5192260742189	-253.4241943359376	1050.426025390625	-712.2376098632814	-239.2583770751954	948.2152099609377	-1003.781555175781	-238.6869659423829	950.981140136719	-770.3553466796877	-422.1255187988282	1032.0009765625	-891.279724121094	-427.7297363281251	1001.347534179688	-919.9229736328127	-423.8640441894532	1000.871215820313	-862.0452270507815	-345.2810974121094	811.0604248046877	-1085.155639648438	-317.4449157714844	733.4649047851564	-1102.066772460938	-267.6459350585938	732.2084960937501	-1093.8427734375	-348.9278869628907	680.9106445312501	-1104.02783203125	-383.8358154296876	507.5678710937501	-1094.265258789063	-329.4825134277344	473.1305236816407	-988.3890380859377	-339.6215209960938	311.2553710937501	-1054.991088867188	-371.2519226074219	281.5038452148438	-1132.126220703125	-341.2604064941407	271.4646606445313	-1097.483520507813	-348.0197143554688	189.1053161621094	-1082.68212890625	-409.3292236328126	97.10746765136722	-1136.513549804688	-366.0296325683594	100.2509841918946	-1056.643798828125	-245.4577026367188	63.42211914062501	-1116.596923828125	-256.7186889648438	64.03355407714845	-1159.904907226563	-306.2989196777344	43.89754486083985	-1195.998046875	-361.5751953125001	785.4924316406252	-688.1697387695314	-331.2216491699219	727.8137207031251	-672.7807006835939	-298.1381835937501	726.4925537109376	-675.4367675781251	-364.6739196777344	650.4501953125001	-680.5053710937501	-375.3970336914063	499.2202758789064	-688.5484619140626	-326.2286071777344	479.1584777832032	-801.7320556640627	-342.4328918457032	372.9095458984376	-688.9326171875001	-409.7941894531251	292.6309204101563	-659.7755126953126	-363.0004577636719	292.9927062988282	-663.7985229492189	-345.3144226074219	242.6764831542969	-690.6637573242189	-406.519500732422	90.29079437255861	-666.5230712890626	-360.5683898925782	104.0859985351563	-747.6246948242189	-446.9230041503907	50.41379165649415	-727.4865722656251	-236.0172729492188	55.36521148681642	-696.4546508789064	-245.2693176269532	59.07773208618165	-651.0964355468751	-301.8870239257813	31.04029846191407	-604.6824340820314	nan	nan	nan	
417	2.08	-105.1777877807617	1641.512329101563	-832.9431152343752	-232.0548858642579	1659.724975585938	-962.1715087890627	-300.2998657226563	1669.31005859375	-829.3091430664065	-361.1072998046876	1496.833129882813	-893.977722167969	-426.5227661132814	1175.067626953125	-884.9567871093752	-230.0412902832032	1403.82373046875	-887.4020996093752	-279.9771118164063	1442.766723632813	-1067.017822265625	-398.1575622558595	1340.700561523438	-1191.322021484375	-361.7351989746094	1311.0302734375	-1211.993530273438	-413.0550842285157	1287.88134765625	-1234.862182617188	-407.9197082519532	1222.956787109375	-1269.930297851563	-467.7941894531251	1197.223022460938	-1196.445434570313	-312.2441711425782	1068.921630859375	-1092.909301757813	-276.2945556640626	1031.895629882813	-1152.0126953125	-253.3579864501954	1055.122314453125	-1055.364379882813	-298.4916076660157	1455.097412109375	-723.7233886718751	-422.0254211425782	1345.562744140625	-592.6380615234376	-388.7990722656251	1314.060180664063	-573.0192871093751	-439.013153076172	1291.402465820313	-551.0193481445314	-432.5183105468751	1222.620239257813	-519.0083618164064	-490.7529602050782	1194.944458007813	-585.3276367187501	-314.5228271484376	1068.074951171875	-686.0553588867189	-291.4646301269532	1032.452270507813	-624.4601440429689	-253.4295043945313	1050.37890625	-712.2402343750001	-239.4627075195313	948.1768798828127	-1003.761596679688	-238.3870544433594	951.0918579101565	-771.3106079101565	-422.1900634765626	1032.01220703125	-891.2781372070315	-427.8340454101564	1001.317199707031	-919.9326171875002	-423.9270629882814	1000.899169921875	-862.0341796875002	-345.2592163085938	811.0410766601565	-1085.147094726563	-317.4041748046876	733.4635620117189	-1102.036254882813	-267.9545898437501	732.6153564453126	-1093.9248046875	-348.9367675781251	680.9104614257814	-1104.00927734375	-383.8226623535157	507.5961914062501	-1094.2685546875	-329.6715087890626	472.8407592773439	-988.4099121093752	-339.6718444824219	311.2426452636719	-1054.973510742188	-371.2461853027344	281.5043029785157	-1132.109619140625	-341.1485595703126	271.4864501953126	-1097.450927734375	-348.0324401855469	189.0416870117188	-1082.621704101563	-409.2746582031251	97.098014831543	-1136.547729492188	-366.1384887695313	100.1107330322266	-1056.544311523438	-245.4476165771485	63.40666580200197	-1116.561401367188	-256.8090515136719	64.05737304687501	-1159.892700195313	-306.3471069335938	43.92401885986329	-1195.990478515625	-361.5709838867188	785.5277099609377	-688.1581420898439	-331.2847595214844	727.9055175781251	-672.7259521484376	-298.2031860351563	726.4926147460939	-675.4212646484376	-364.6740417480469	650.4672851562501	-680.4948730468751	-375.4110717773438	499.240692138672	-688.5202026367189	-326.4347839355469	479.1597900390626	-801.6546630859377	-342.4262695312501	372.8874511718751	-688.9400024414064	-409.7622375488282	292.6348571777344	-659.7741088867189	-363.0015258789063	292.9662780761719	-663.7351074218751	-345.3132324218751	242.6508941650391	-690.6066284179689	-406.576629638672	90.29595184326173	-666.6611938476564	-360.5614929199219	104.1015625	-747.5794677734376	-446.8880615234376	50.45298004150392	-727.5438842773439	-235.9955749511719	55.42029190063478	-696.4544677734376	-245.435531616211	59.20671463012697	-651.0552368164064	-301.8804321289063	31.04394149780274	-604.6842651367189	nan	nan	nan	
